<?xml version="1.0" encoding="UTF-8" standalone="no"?>
<!DOCTYPE svg PUBLIC "-//W3C//DTD SVG 1.1//EN" "http://www.w3.org/Graphics/SVG/1.1/DTD/svg11.dtd">
<svg xmlns="http://www.w3.org/2000/svg" version="1.1" viewBox="0.00 0.00 500.00 500.00">
<path fill="#ffff" d="
  M 305.63 358.13
  Q 305.27 357.03 304.80 358.09
  C 279.65 414.84 208.60 423.15 154.76 417.50
  C 111.68 412.98 75.69 391.37 78.49 342.73
  C 80.54 307.22 106.95 287.27 139.33 280.41
  Q 139.86 280.30 139.87 279.76
  Q 140.50 253.99 139.22 228.54
  C 138.53 214.88 127.21 214.32 115.72 212.05
  Q 115.19 211.95 115.20 211.41
  L 115.38 203.59
  Q 115.39 203.14 115.05 202.82
  Q 110.40 198.52 105.57 194.46
  C 101.36 190.92 98.32 187.08 94.92 182.98
  C 89.86 176.89 92.38 168.77 87.31 162.25
  A 0.96 0.96 0.0 0 1 87.17 161.29
  C 89.60 155.32 94.71 158.01 99.27 158.85
  A 1.44 1.44 0.0 0 0 100.97 157.48
  L 101.45 142.59
  Q 101.47 142.06 101.81 141.65
  C 103.03 140.19 103.78 138.76 105.53 137.93
  C 112.14 134.78 116.62 136.82 122.78 137.10
  Q 128.51 137.37 134.25 136.96
  A 0.50 0.49 84.6 0 0 134.71 136.40
  Q 133.95 130.59 129.46 126.84
  Q 129.16 126.59 128.95 126.29
  Q 128.56 125.70 128.54 125.65
  A 2.32 2.32 0.0 0 1 130.92 122.55
  Q 144.97 123.72 158.99 127.55
  C 169.09 130.31 180.51 135.02 184.62 145.96
  C 185.98 149.56 185.92 154.28 186.48 158.39
  C 187.58 166.43 186.69 175.04 185.65 183.17
  A 1.84 1.83 16.3 0 0 186.69 185.06
  C 197.61 190.20 207.98 195.29 217.44 203.10
  A 0.37 0.37 0.0 0 1 217.23 203.76
  Q 215.54 203.86 214.02 202.71
  C 205.69 196.41 195.26 191.90 185.84 187.42
  Q 185.34 187.18 184.86 187.44
  L 184.47 187.65
  A 0.93 0.93 0.0 0 0 184.49 189.30
  C 195.05 194.63 205.35 197.82 214.99 205.08
  A 2.10 2.10 0.0 0 0 218.24 204.10
  Q 233.72 159.79 248.93 114.43
  Q 253.36 101.22 255.28 92.02
  C 256.96 83.91 247.02 84.91 243.06 86.32
  C 238.99 87.77 234.26 89.92 230.15 89.45
  C 218.66 88.11 214.59 71.50 224.80 65.99
  C 232.02 62.09 248.25 65.03 255.75 67.01
  C 276.09 72.38 287.85 91.49 294.57 110.82
  C 310.99 158.09 327.10 205.57 344.39 252.54
  C 348.23 262.98 354.25 275.39 364.21 281.54
  C 368.33 284.08 373.50 284.72 378.38 285.51
  A 0.75 0.74 -85.5 0 1 379.00 286.25
  L 379.00 293.13
  Q 379.00 293.76 378.37 293.76
  L 313.00 293.75
  A 0.75 0.75 0.0 0 0 312.26 294.63
  C 312.64 296.91 312.17 300.11 314.35 301.51
  Q 314.83 301.82 315.10 302.33
  Q 316.48 305.01 318.79 306.92
  A 1.54 1.50 65.3 0 0 319.70 307.27
  Q 321.54 307.37 322.52 305.80
  A 1.59 1.52 4.6 0 1 323.32 305.15
  Q 327.73 303.52 331.74 301.11
  C 332.75 300.50 333.63 300.97 334.61 300.60
  C 341.83 297.85 350.31 294.76 357.87 295.47
  Q 370.49 296.66 380.06 305.70
  C 382.38 307.89 384.93 315.81 389.00 318.44
  C 398.78 324.79 405.71 328.29 412.43 337.68
  C 417.11 344.21 422.12 357.32 420.60 365.17
  C 418.54 375.78 422.14 388.29 413.28 396.27
  C 409.57 399.61 408.69 400.61 408.28 405.32
  Q 407.58 413.28 401.12 418.58
  C 398.98 420.33 396.36 427.19 396.51 429.28
  Q 396.55 429.83 396.25 430.28
  Q 395.20 431.91 395.25 433.96
  A 1.50 1.50 0.0 0 1 392.89 435.22
  C 388.01 431.77 385.23 426.31 379.32 424.65
  Q 373.88 423.13 370.62 421.95
  C 366.32 420.40 363.40 417.27 360.12 414.14
  Q 358.62 412.71 357.23 413.89
  A 1.95 1.94 -50.9 0 1 355.06 414.12
  C 345.11 408.80 343.34 400.22 339.72 390.26
  C 338.37 386.52 336.82 384.66 333.21 382.51
  C 324.34 377.23 309.01 368.52 305.63 358.13
  Z
  M 235.15 205.51
  A 0.33 0.33 0.0 0 0 235.46 205.94
  L 303.66 206.06
  A 0.33 0.33 0.0 0 0 303.97 205.63
  L 270.05 102.07
  A 0.33 0.33 0.0 0 0 269.43 102.06
  L 235.15 205.51
  Z
  M 182.07 149.25
  C 179.72 136.06 165.23 131.49 154.14 128.64
  Q 143.41 125.89 132.44 125.12
  A 0.54 0.54 0.0 0 0 132.01 126.03
  Q 135.89 130.12 137.00 135.71
  A 0.69 0.69 0.0 0 0 137.70 136.27
  C 150.07 135.85 159.53 137.73 168.97 145.90
  C 172.60 149.05 174.31 153.65 176.36 157.97
  C 178.48 162.43 181.38 166.30 183.86 170.59
  A 0.43 0.43 0.0 0 0 184.66 170.35
  Q 183.94 159.76 182.07 149.25
  Z
  M 178.43 192.35
  Q 178.82 192.19 179.09 191.78
  Q 179.38 191.36 178.94 191.09
  C 169.82 185.54 161.88 184.19 152.36 182.21
  C 149.67 181.65 146.38 180.21 144.52 178.73
  Q 130.88 167.85 116.74 157.65
  Q 116.65 157.59 115.61 157.03
  Q 114.77 156.58 114.76 155.71
  A 0.57 0.57 0.0 0 1 115.66 155.24
  Q 124.99 161.67 133.95 168.51
  C 143.00 175.43 151.57 178.03 162.67 179.68
  C 170.74 180.88 175.65 182.18 181.49 186.60
  A 0.78 0.78 0.0 0 0 182.73 186.15
  Q 184.72 177.41 180.37 170.69
  C 176.92 165.38 174.09 160.10 171.22 154.46
  C 164.79 141.83 149.96 136.95 136.49 139.12
  C 131.99 139.85 127.16 139.98 122.52 139.29
  C 116.82 138.44 109.13 137.42 104.40 141.50
  Q 104.02 141.83 103.96 142.33
  C 103.00 149.67 101.66 160.09 103.74 167.21
  C 104.76 170.70 105.00 174.55 106.89 177.50
  C 110.35 182.95 114.28 185.98 120.51 189.46
  Q 131.15 195.42 140.64 203.12
  C 143.33 205.30 159.66 204.26 163.69 204.23
  A 3.81 3.73 26.9 0 0 165.81 203.56
  Q 172.61 198.82 178.10 192.59
  A 0.94 0.87 -79.0 0 1 178.43 192.35
  Z
  M 137.01 203.43
  Q 127.14 195.94 116.77 189.75
  C 111.13 186.38 105.36 181.47 103.59 174.88
  Q 102.13 169.45 100.84 163.41
  A 1.44 1.43 -0.6 0 0 99.71 162.31
  L 90.79 160.62
  A 0.56 0.56 0.0 0 0 90.23 161.50
  C 91.86 163.74 92.61 165.41 92.96 168.34
  C 93.95 176.49 96.05 182.79 102.10 187.79
  C 108.37 192.97 113.43 198.41 119.13 203.86
  A 1.38 1.37 -22.8 0 0 120.09 204.25
  L 136.74 204.25
  A 0.46 0.45 63.4 0 0 137.01 203.43
  Z
  M 180.90 187.97
  C 175.55 184.08 171.57 182.67 164.38 181.57
  Q 154.73 180.10 145.38 176.95
  A 0.36 0.36 0.0 0 0 145.07 177.59
  Q 148.62 179.85 153.02 180.63
  C 161.86 182.21 171.50 184.50 179.22 189.52
  Q 180.04 190.05 180.84 189.56
  A 0.96 0.96 0.0 0 0 180.90 187.97
  Z
  M 208.58 204.24
  C 204.08 200.93 196.70 196.00 191.28 195.53
  A 1.71 1.69 -22.5 0 1 190.39 195.17
  C 188.03 193.33 186.10 191.27 182.62 191.85
  Q 182.16 191.92 181.85 192.28
  Q 177.74 196.93 173.29 201.30
  C 172.08 202.50 171.24 202.66 169.79 203.57
  A 0.33 0.33 0.0 0 0 169.96 204.18
  L 208.52 204.40
  Q 208.80 204.40 208.58 204.24
  Z
  M 282.37 279.93
  C 272.77 237.11 238.51 216.97 196.75 215.96
  Q 180.38 215.57 164.44 215.81
  A 0.70 0.70 0.0 0 0 163.75 216.51
  L 163.75 276.51
  Q 163.75 277.10 164.34 277.08
  C 177.08 276.70 210.22 275.76 218.75 285.94
  C 223.37 291.44 223.11 302.49 215.58 305.63
  C 203.89 310.51 196.37 301.73 189.19 294.29
  C 182.74 287.60 173.82 287.84 165.01 288.62
  Q 163.75 288.73 163.75 289.99
  L 163.75 406.47
  A 0.91 0.90 -88.7 0 0 164.61 407.38
  Q 178.90 408.08 193.06 407.38
  C 237.24 405.17 275.87 381.61 283.76 335.74
  Q 288.59 307.69 282.37 279.93
  Z
  M 265.50 217.97
  A 0.26 0.25 -31.4 0 0 265.38 218.45
  C 290.38 231.14 305.81 255.58 310.50 282.77
  A 0.52 0.52 0.0 0 0 311.12 283.19
  C 317.72 281.78 324.14 280.34 324.32 272.04
  Q 324.40 268.55 323.82 266.73
  Q 316.07 242.46 307.92 218.50
  A 0.72 0.71 80.1 0 0 307.25 218.02
  L 265.50 217.97
  Z
  M 111.69 385.81
  C 122.84 395.83 134.94 400.44 149.25 404.65
  A 0.39 0.39 0.0 0 0 149.57 403.94
  Q 144.24 400.59 140.31 395.65
  A 1.49 1.48 -64.2 0 1 140.00 394.74
  L 140.00 294.02
  Q 140.00 293.66 139.65 293.76
  Q 123.21 298.52 112.47 308.22
  C 90.67 327.92 89.39 365.78 111.69 385.81
  Z
  M 353.27 298.74
  C 357.15 298.82 362.93 304.56 364.90 307.64
  Q 373.61 321.20 383.99 333.49
  Q 387.50 337.65 388.94 344.24
  C 389.94 348.78 388.46 354.55 388.22 359.39
  Q 388.20 359.90 387.98 360.37
  Q 387.47 361.45 388.58 362.14
  Q 392.40 364.50 396.56 366.83
  A 0.74 0.74 0.0 0 0 397.62 365.95
  C 395.83 360.63 398.23 358.00 398.27 352.98
  C 398.30 349.60 398.88 346.78 397.76 343.58
  C 395.80 337.96 392.30 333.31 390.09 327.98
  C 386.81 320.09 380.96 308.11 373.51 303.41
  Q 364.16 297.51 352.68 297.35
  Q 352.25 297.35 352.25 297.77
  Q 352.24 298.41 352.94 298.67
  A 0.84 0.69 -27.4 0 0 353.27 298.74
  Z
  M 350.94 330.56
  Q 361.37 346.90 372.39 362.72
  A 0.52 0.52 0.0 0 1 371.80 363.51
  Q 371.24 363.32 370.80 362.70
  Q 364.20 353.25 357.97 343.56
  C 355.90 340.35 352.52 336.45 349.56 334.11
  Q 340.41 326.87 337.32 325.66
  Q 326.22 321.34 319.51 311.83
  A 0.79 0.79 0.0 0 0 318.16 311.93
  C 316.44 315.33 313.88 320.41 314.73 324.30
  Q 317.45 336.70 318.57 346.08
  C 320.16 359.44 332.49 369.03 344.93 371.69
  C 348.38 372.43 350.74 373.11 353.72 374.01
  C 362.30 376.62 368.35 383.23 377.60 380.36
  Q 378.07 380.22 378.28 379.78
  C 381.56 373.18 386.50 363.54 386.80 356.19
  C 386.93 352.96 388.27 347.10 387.17 344.30
  Q 383.63 335.24 381.74 333.25
  Q 372.13 323.12 364.62 311.43
  Q 360.93 305.69 358.51 303.79
  C 348.53 295.96 333.49 302.34 323.46 308.14
  Q 323.07 308.36 323.35 308.71
  C 329.71 316.38 335.82 320.12 344.99 325.60
  C 346.96 326.77 349.99 329.08 350.94 330.56
  Z
  M 313.09 304.26
  C 312.53 307.27 314.45 308.85 316.49 310.53
  Q 317.04 310.98 317.46 310.41
  L 318.15 309.51
  Q 318.54 308.99 318.09 308.53
  L 313.66 304.08
  A 0.34 0.34 0.0 0 0 313.09 304.26
  Z
  M 350.69 333.56
  Q 350.83 334.22 351.50 333.97
  A 0.50 0.49 59.6 0 0 351.70 333.18
  C 345.20 325.92 336.44 323.08 329.31 316.59
  Q 325.58 313.18 322.25 309.44
  A 0.96 0.95 45.2 0 0 320.83 309.43
  L 320.41 309.91
  Q 320.03 310.33 320.35 310.80
  C 323.69 315.55 327.00 318.93 332.53 321.73
  Q 342.23 326.65 350.69 333.56
  Z
  M 314.56 311.69
  Q 314.31 311.11 313.78 310.81
  Q 313.15 310.45 313.15 311.17
  L 313.16 316.27
  A 0.35 0.35 0.0 0 0 313.84 316.39
  L 315.15 312.76
  Q 315.31 312.32 315.01 311.96
  Q 314.82 311.73 314.56 311.69
  Z
  M 400.15 339.12
  Q 411.80 347.48 418.23 360.02
  A 0.46 0.46 0.0 0 0 419.10 359.74
  Q 416.57 343.93 405.74 332.66
  C 401.44 328.19 395.01 324.49 389.57 320.52
  A 0.51 0.51 0.0 0 0 388.82 321.19
  Q 392.73 328.01 396.60 335.11
  Q 397.92 337.52 400.15 339.12
  Z
  M 307.52 350.80
  C 302.91 365.08 336.03 382.83 346.16 386.63
  Q 346.93 386.92 346.64 386.15
  L 344.79 381.29
  A 0.69 0.58 39.8 0 1 344.75 381.07
  L 344.75 374.75
  A 0.97 0.97 0.0 0 0 344.03 373.81
  Q 326.56 369.27 317.93 354.20
  C 315.38 349.74 315.43 342.99 314.82 337.90
  C 314.46 334.89 313.20 331.71 312.84 328.47
  A 0.28 0.28 0.0 0 0 312.29 328.47
  Q 311.07 339.82 307.52 350.80
  Z
  M 399.29 367.88
  L 398.07 369.04
  A 0.70 0.68 42.2 0 0 398.13 370.09
  Q 403.64 374.25 408.43 379.18
  C 410.90 381.71 412.83 385.50 415.59 388.40
  A 0.44 0.44 0.0 0 0 416.35 388.16
  C 417.56 379.68 417.09 371.35 418.81 362.92
  A 1.19 1.16 -57.7 0 0 418.61 361.98
  Q 415.69 357.95 412.90 353.82
  C 408.94 347.98 404.67 344.19 399.33 340.16
  A 0.47 0.47 0.0 0 0 398.62 340.73
  Q 399.69 343.16 400.52 345.78
  C 402.43 351.75 398.02 358.64 399.97 365.36
  A 2.50 2.50 0.0 0 1 399.29 367.88
  Z
  M 415.13 389.45
  Q 413.04 387.56 412.02 385.82
  C 408.32 379.54 403.23 376.37 398.18 371.53
  C 395.33 368.80 391.26 367.48 388.01 365.14
  A 1.22 1.22 0.0 0 0 386.17 365.66
  L 380.91 378.39
  A 3.18 3.15 46.0 0 0 380.88 380.73
  C 383.03 386.39 385.98 394.96 390.41 399.22
  Q 397.36 405.92 401.33 414.68
  A 0.85 0.85 0.0 0 0 402.80 414.82
  C 406.90 408.92 404.83 400.82 411.20 395.90
  Q 413.80 393.89 415.39 391.01
  A 1.27 1.27 0.0 0 0 415.13 389.45
  Z
  M 346.77 389.30
  L 341.33 386.66
  A 0.43 0.43 0.0 0 0 340.75 387.21
  C 344.62 396.72 345.94 406.92 355.71 412.41
  A 0.97 0.97 0.0 0 0 357.09 411.20
  C 353.08 401.16 355.49 391.33 357.67 381.13
  A 3.69 3.69 0.0 0 0 355.29 376.88
  L 347.80 374.23
  A 0.66 0.66 0.0 0 0 346.93 374.75
  Q 346.02 380.65 348.66 385.33
  C 349.62 387.04 349.37 388.50 347.59 389.31
  Q 347.18 389.50 346.77 389.30
  Z
  M 384.84 399.25
  C 385.26 395.53 382.47 390.91 380.40 387.32
  C 379.72 386.14 379.34 384.16 378.06 382.93
  Q 377.67 382.56 377.16 382.69
  C 370.51 384.31 365.08 381.62 359.57 378.28
  A 0.68 0.68 0.0 0 0 358.56 378.99
  Q 358.88 380.72 358.52 382.71
  C 356.81 392.12 354.92 399.95 357.87 410.08
  Q 358.01 410.54 358.40 410.80
  Q 362.31 413.36 365.60 416.73
  C 369.42 420.66 376.79 422.38 382.00 423.58
  Q 382.49 423.69 382.46 423.18
  Q 382.21 419.33 382.45 418.24
  C 383.89 411.88 384.12 405.66 384.84 399.25
  Z
  M 384.06 424.75
  Q 387.35 427.02 389.98 430.02
  A 0.69 0.68 20.1 0 0 391.18 429.47
  C 390.29 423.74 390.32 416.80 389.70 412.27
  Q 388.82 405.82 386.76 399.53
  A 0.57 0.57 0.0 0 0 385.65 399.73
  Q 385.92 408.05 384.13 416.57
  Q 383.31 420.53 383.87 424.43
  A 0.46 0.44 15.6 0 0 384.06 424.75
  Z
  M 389.34 399.91
  Q 388.99 399.59 388.52 399.84
  Q 388.27 399.97 388.36 400.24
  Q 392.24 412.32 391.38 425.06
  A 1.84 1.77 35.2 0 0 391.56 426.00
  C 392.37 427.64 391.75 430.51 392.47 431.36
  A 0.58 0.57 36.8 0 0 393.44 431.22
  C 395.39 426.62 396.11 419.96 400.24 417.00
  Q 401.03 416.44 400.62 415.57
  Q 396.32 406.32 389.34 399.91
  Z"
/>
</svg>
